<svg width="195" height="15" viewBox="0 0 195 15" fill="none" xmlns="http://www.w3.org/2000/svg">
<path d="M8.35939 4.3821C8.30257 3.80919 8.05873 3.36411 7.62785 3.04688C7.19698 2.72964 6.61223 2.57102 5.87359 2.57102C5.3717 2.57102 4.94793 2.64205 4.60229 2.78409C4.25664 2.9214 3.99149 3.11316 3.80683 3.35938C3.62691 3.60559 3.53695 3.88494 3.53695 4.19744C3.52748 4.45786 3.58193 4.68513 3.7003 4.87926C3.8234 5.07339 3.99149 5.24148 4.20456 5.38352C4.41763 5.52083 4.66384 5.64157 4.9432 5.74574C5.22255 5.84517 5.52085 5.9304 5.83808 6.00142L7.1449 6.31392C7.77937 6.45597 8.36176 6.64536 8.89206 6.8821C9.42236 7.11885 9.88164 7.41004 10.2699 7.75568C10.6582 8.10133 10.9588 8.50852 11.1719 8.97727C11.3897 9.44602 11.501 9.98343 11.5057 10.5895C11.501 11.4796 11.2737 12.2514 10.8239 12.9048C10.3788 13.5535 9.73486 14.0578 8.89206 14.4176C8.05399 14.7727 7.0431 14.9503 5.85939 14.9503C4.68515 14.9503 3.66242 14.7704 2.79121 14.4105C1.92473 14.0507 1.24765 13.518 0.759957 12.8125C0.277003 12.1023 0.0236881 11.224 1.38581e-05 10.1776H2.97587C3.00901 10.6652 3.14869 11.0724 3.3949 11.3991C3.64585 11.7211 3.97965 11.965 4.39632 12.1307C4.81772 12.2917 5.29357 12.3722 5.82388 12.3722C6.34471 12.3722 6.79689 12.2964 7.18041 12.1449C7.56867 11.9934 7.86933 11.7827 8.0824 11.5128C8.29547 11.2429 8.402 10.9328 8.402 10.5824C8.402 10.2557 8.30494 9.98106 8.11081 9.75852C7.92142 9.53599 7.64206 9.34659 7.27274 9.19034C6.90816 9.03409 6.46071 8.89205 5.93041 8.76421L4.3466 8.36648C3.12028 8.06818 2.152 7.6018 1.44178 6.96733C0.731548 6.33286 0.378802 5.47822 0.383537 4.40341C0.378802 3.52273 0.613177 2.75332 1.08666 2.09517C1.56488 1.43703 2.22066 0.923297 3.05399 0.553979C3.88732 0.18466 4.83429 1.19209e-06 5.8949 1.19209e-06C6.97445 1.19209e-06 7.91668 0.18466 8.7216 0.553979C9.53126 0.923297 10.161 1.43703 10.6108 2.09517C11.0606 2.75332 11.2926 3.51563 11.3068 4.3821H8.35939ZM13.0203 2.73438V0.198865H24.9663V2.73438H20.5132V14.7443H17.4734V2.73438H13.0203ZM35.918 0.198865H38.9933V9.64489C38.9933 10.7055 38.74 11.6335 38.2333 12.429C37.7314 13.2244 37.0283 13.8447 36.1239 14.2898C35.2196 14.7301 34.1661 14.9503 32.9634 14.9503C31.7561 14.9503 30.7002 14.7301 29.7958 14.2898C28.8915 13.8447 28.1883 13.2244 27.6864 12.429C27.1846 11.6335 26.9336 10.7055 26.9336 9.64489V0.198865H30.0089V9.3821C30.0089 9.93608 30.1296 10.4285 30.3711 10.8594C30.6173 11.2902 30.963 11.6288 31.408 11.875C31.8531 12.1212 32.3716 12.2443 32.9634 12.2443C33.56 12.2443 34.0785 12.1212 34.5188 11.875C34.9639 11.6288 35.3072 11.2902 35.5487 10.8594C35.7949 10.4285 35.918 9.93608 35.918 9.3821V0.198865ZM46.6797 14.7443H41.5235V0.198865H46.7223C48.1854 0.198865 49.4449 0.490058 50.5007 1.07244C51.5566 1.6501 52.3686 2.48106 52.9368 3.56534C53.5097 4.64962 53.7962 5.94697 53.7962 7.45739C53.7962 8.97254 53.5097 10.2746 52.9368 11.3636C52.3686 12.4527 51.5519 13.2884 50.4865 13.8707C49.4259 14.4531 48.157 14.7443 46.6797 14.7443ZM44.5987 12.1094H46.5519C47.461 12.1094 48.2256 11.9484 48.8459 11.6264C49.4709 11.2997 49.9396 10.7955 50.2521 10.1136C50.5694 9.42709 50.728 8.54167 50.728 7.45739C50.728 6.38258 50.5694 5.50426 50.2521 4.82244C49.9396 4.14063 49.4733 3.63873 48.853 3.31676C48.2327 2.99479 47.4681 2.83381 46.559 2.83381H44.5987V12.1094ZM56.0742 14.7443V0.198865H65.8754V2.73438H59.1495V6.20029H65.3711V8.7358H59.1495V12.2088H65.9038V14.7443H56.0742ZM80.4865 0.198865V14.7443H77.8303L71.5021 5.58949H71.3956V14.7443H68.3203V0.198865H71.0192L77.2976 9.34659H77.4254V0.198865H80.4865ZM82.4734 2.73438V0.198865H94.4194V2.73438H89.9663V14.7443H86.9265V2.73438H82.4734Z" fill="#D44332"/>
<path d="M108.556 5.29119H105.446C105.389 4.88873 105.273 4.53125 105.098 4.21875C104.922 3.90152 104.698 3.63163 104.423 3.40909C104.148 3.18655 103.831 3.0161 103.471 2.89773C103.116 2.77936 102.73 2.72017 102.314 2.72017C101.561 2.72017 100.905 2.9072 100.346 3.28125C99.7875 3.65057 99.3543 4.19034 99.0465 4.90057C98.7388 5.60606 98.5849 6.46307 98.5849 7.47159C98.5849 8.50852 98.7388 9.37974 99.0465 10.0852C99.359 10.7907 99.7946 11.3234 100.353 11.6832C100.912 12.0431 101.558 12.223 102.292 12.223C102.704 12.223 103.085 12.1686 103.436 12.0597C103.791 11.9508 104.106 11.7921 104.38 11.5838C104.655 11.3707 104.882 11.1127 105.062 10.8097C105.247 10.5066 105.375 10.161 105.446 9.77273L108.556 9.78693C108.476 10.4545 108.275 11.0985 107.953 11.7188C107.636 12.3343 107.207 12.8859 106.667 13.3736C106.132 13.8565 105.493 14.2401 104.75 14.5241C104.011 14.8035 103.175 14.9432 102.243 14.9432C100.945 14.9432 99.7852 14.6496 98.7624 14.0625C97.7445 13.4754 96.9395 12.6255 96.3477 11.5128C95.7605 10.4001 95.467 9.05303 95.467 7.47159C95.467 5.88542 95.7653 4.53599 96.3619 3.4233C96.9585 2.31061 97.7681 1.46307 98.7909 0.880684C99.8136 0.293562 100.964 1.19209e-06 102.243 1.19209e-06C103.085 1.19209e-06 103.867 0.118372 104.586 0.355115C105.311 0.591857 105.952 0.937501 106.511 1.39205C107.07 1.84186 107.524 2.39347 107.875 3.04688C108.23 3.70029 108.457 4.44839 108.556 5.29119ZM124.128 7.47159C124.128 9.05777 123.828 10.4072 123.226 11.5199C122.63 12.6326 121.815 13.4825 120.783 14.0696C119.756 14.652 118.6 14.9432 117.317 14.9432C116.025 14.9432 114.864 14.6496 113.837 14.0625C112.81 13.4754 111.998 12.6255 111.401 11.5128C110.804 10.4001 110.506 9.05303 110.506 7.47159C110.506 5.88542 110.804 4.53599 111.401 3.4233C111.998 2.31061 112.81 1.46307 113.837 0.880684C114.864 0.293562 116.025 1.19209e-06 117.317 1.19209e-06C118.6 1.19209e-06 119.756 0.293562 120.783 0.880684C121.815 1.46307 122.63 2.31061 123.226 3.4233C123.828 4.53599 124.128 5.88542 124.128 7.47159ZM121.01 7.47159C121.01 6.44413 120.856 5.57765 120.549 4.87216C120.246 4.16667 119.817 3.63163 119.263 3.26705C118.709 2.90246 118.061 2.72017 117.317 2.72017C116.574 2.72017 115.925 2.90246 115.371 3.26705C114.817 3.63163 114.386 4.16667 114.078 4.87216C113.775 5.57765 113.624 6.44413 113.624 7.47159C113.624 8.49905 113.775 9.36553 114.078 10.071C114.386 10.7765 114.817 11.3116 115.371 11.6761C115.925 12.0407 116.574 12.223 117.317 12.223C118.061 12.223 118.709 12.0407 119.263 11.6761C119.817 11.3116 120.246 10.7765 120.549 10.071C120.856 9.36553 121.01 8.49905 121.01 7.47159ZM138.572 0.198865V14.7443H135.916L129.588 5.58949H129.482V14.7443H126.406V0.198865H129.105L135.384 9.34659H135.511V0.198865H138.572ZM153.279 0.198865V14.7443H150.623L144.295 5.58949H144.189V14.7443H141.113V0.198865H143.812L150.091 9.34659H150.218V0.198865H153.279ZM155.82 14.7443V0.198865H165.621V2.73438H158.896V6.20029H165.117V8.7358H158.896V12.2088H165.65V14.7443H155.82ZM180.9 5.29119H177.789C177.733 4.88873 177.617 4.53125 177.441 4.21875C177.266 3.90152 177.041 3.63163 176.767 3.40909C176.492 3.18655 176.175 3.0161 175.815 2.89773C175.46 2.77936 175.074 2.72017 174.657 2.72017C173.904 2.72017 173.249 2.9072 172.69 3.28125C172.131 3.65057 171.698 4.19034 171.39 4.90057C171.083 5.60606 170.929 6.46307 170.929 7.47159C170.929 8.50852 171.083 9.37974 171.39 10.0852C171.703 10.7907 172.138 11.3234 172.697 11.6832C173.256 12.0431 173.902 12.223 174.636 12.223C175.048 12.223 175.429 12.1686 175.779 12.0597C176.135 11.9508 176.449 11.7921 176.724 11.5838C176.999 11.3707 177.226 11.1127 177.406 10.8097C177.591 10.5066 177.718 10.161 177.789 9.77273L180.9 9.78693C180.82 10.4545 180.619 11.0985 180.297 11.7188C179.979 12.3343 179.551 12.8859 179.011 13.3736C178.476 13.8565 177.837 14.2401 177.093 14.5241C176.355 14.8035 175.519 14.9432 174.586 14.9432C173.289 14.9432 172.129 14.6496 171.106 14.0625C170.088 13.4754 169.283 12.6255 168.691 11.5128C168.104 10.4001 167.811 9.05303 167.811 7.47159C167.811 5.88542 168.109 4.53599 168.706 3.4233C169.302 2.31061 170.112 1.46307 171.135 0.880684C172.157 0.293562 173.308 1.19209e-06 174.586 1.19209e-06C175.429 1.19209e-06 176.21 0.118372 176.93 0.355115C177.654 0.591857 178.296 0.937501 178.855 1.39205C179.413 1.84186 179.868 2.39347 180.218 3.04688C180.574 3.70029 180.801 4.44839 180.9 5.29119ZM182.552 2.73438V0.198865H194.498V2.73438H190.044V14.7443H187.005V2.73438H182.552Z" fill="#00ACED"/>
</svg>
